<!-- Triage Desk "Dispatch" icon system
     24px grid · 1.75px stroke · squared terminals (stroke-linecap: square)
     Usage: inline this sprite once, then <svg class="ic"><use href="#i-tower"/></svg>
     Icons inherit currentColor. Always aria-hidden; meaning lives in adjacent text.
     Symbols: i-tower i-strip i-radar i-clock i-route i-export i-book i-copy
              i-radio i-spark i-alert i-pin i-sun i-moon i-check i-x i-wire -->
<svg width="0" height="0" aria-hidden="true">
  <defs>
    <symbol id="i-tower" viewBox="0 0 24 24"><path d="M12 2v3M7 5h10l-1.5 5h-7L7 5zM10.5 10 9 22h6l-1.5-12M6.5 22h11"/></symbol>
    <symbol id="i-strip" viewBox="0 0 24 24"><rect x="3" y="7" width="18" height="10"/><path d="M7 7v10M7 10.5h.01M7 13.5h.01" stroke-dasharray="0 0"/><path d="M10 10.5h8M10 13.5h5"/></symbol>
    <symbol id="i-radar" viewBox="0 0 24 24"><circle cx="12" cy="12" r="9"/><circle cx="12" cy="12" r="4.5"/><path d="M12 12l6.5-6.5M15 9.5h.01"/></symbol>
    <symbol id="i-clock" viewBox="0 0 24 24"><circle cx="12" cy="12" r="9"/><path d="M12 7v5l3.5 2"/></symbol>
    <symbol id="i-route" viewBox="0 0 24 24"><path d="M4 18h6c3 0 3-4 6-4h4M16 10l4 4-4 4M4 6h5"/></symbol>
    <symbol id="i-export" viewBox="0 0 24 24"><path d="M12 15V4M8.5 7.5 12 4l3.5 3.5M5 12v8h14v-8"/></symbol>
    <symbol id="i-book" viewBox="0 0 24 24"><path d="M4 4h7v16H4zM13 4h7v16h-7M7 8h1.5M7 11h1.5M16 8h1.5M16 11h1.5"/></symbol>
    <symbol id="i-copy" viewBox="0 0 24 24"><rect x="9" y="9" width="11" height="11"/><path d="M5 15V4h11"/></symbol>
    <symbol id="i-radio" viewBox="0 0 24 24"><path d="M12 15v6M9.5 12.5a2.5 2.5 0 1 1 5 0 2.5 2.5 0 0 1-5 0zM6.8 7.8a6.6 6.6 0 0 0 0 9.4M17.2 7.8a6.6 6.6 0 0 1 0 9.4M4.2 5.2a10.3 10.3 0 0 0 0 14.6M19.8 5.2a10.3 10.3 0 0 1 0 14.6"/></symbol>
    <symbol id="i-spark" viewBox="0 0 24 24"><path d="M12 3v6M12 15v6M3 12h6M15 12h6M12 9l3 3-3 3-3-3 3-3z"/></symbol>
    <symbol id="i-alert" viewBox="0 0 24 24"><path d="M12 3 2.5 20h19L12 3zM12 9.5V14M12 16.8v.01"/></symbol>
    <symbol id="i-pin" viewBox="0 0 24 24"><path d="M12 21c-4-4.2-6.5-7.6-6.5-11a6.5 6.5 0 0 1 13 0c0 3.4-2.5 6.8-6.5 11zM9.8 10a2.2 2.2 0 1 0 4.4 0 2.2 2.2 0 0 0-4.4 0z"/></symbol>
    <symbol id="i-sun" viewBox="0 0 24 24"><circle cx="12" cy="12" r="4.2"/><path d="M12 2.5v2.7M12 18.8v2.7M2.5 12h2.7M18.8 12h2.7M5 5l1.9 1.9M17.1 17.1 19 19M19 5l-1.9 1.9M6.9 17.1 5 19"/></symbol>
    <symbol id="i-moon" viewBox="0 0 24 24"><path d="M20 14.5A8.5 8.5 0 0 1 9.5 4 8.5 8.5 0 1 0 20 14.5z"/></symbol>
    <symbol id="i-check" viewBox="0 0 24 24"><path d="M4.5 12.5 10 18 19.5 6.5"/></symbol>
    <symbol id="i-x" viewBox="0 0 24 24"><path d="M5.5 5.5l13 13M18.5 5.5l-13 13"/></symbol>
    <symbol id="i-wire" viewBox="0 0 24 24"><path d="M3 7h18M3 12h13M3 17h9"/></symbol>
  </defs>
</svg>